M48
; DRILL file {KiCad 8.0.5} date 2024-11-21T16:12:48+0100
; FORMAT={-:-/ absolute / metric / decimal}
; #@! TF.CreationDate,2024-11-21T16:12:48+01:00
; #@! TF.GenerationSoftware,Kicad,Pcbnew,8.0.5
; #@! TF.FileFunction,Plated,1,2,PTH
FMAT,2
METRIC
; #@! TA.AperFunction,Plated,PTH,ComponentDrill
T1C0.800
; #@! TA.AperFunction,Plated,PTH,ComponentDrill
T2C0.900
; #@! TA.AperFunction,Plated,PTH,ComponentDrill
T3C1.000
%
G90
G05
T1
X144.9Y-71.5
X147.45Y-68.95
X147.45Y-74.05
X150.0Y-71.5
T2
X112.725Y-55.5
X112.725Y-61.0
X112.725Y-67.0
X115.265Y-55.5
X115.265Y-61.0
X115.265Y-67.0
T3
X118.796Y-49.2
X121.336Y-49.2
X123.876Y-49.2
X124.5Y-69.0
X124.5Y-76.0
X126.416Y-49.2
X127.94Y-97.46
X128.0Y-68.0
X128.0Y-77.0
X128.956Y-49.2
X130.48Y-97.46
X131.496Y-49.2
X131.5Y-69.0
X131.5Y-76.0
X133.02Y-97.46
X134.036Y-49.2
X135.56Y-97.46
X136.576Y-49.2
X138.1Y-97.46
X139.116Y-49.2
X140.64Y-97.46
X141.656Y-49.2
X143.18Y-97.46
X145.72Y-49.2
X145.72Y-97.46
X146.42Y-58.25
X148.26Y-49.2
X148.96Y-58.25
X150.8Y-49.2
X150.8Y-97.46
X151.5Y-58.25
X153.34Y-49.2
X153.34Y-97.46
X154.04Y-58.25
X155.88Y-49.2
X155.88Y-97.46
X156.58Y-58.25
X158.42Y-49.2
X158.42Y-97.46
X159.12Y-58.25
X159.525Y-74.175
X159.525Y-76.715
X159.525Y-79.255
X159.525Y-81.795
X159.525Y-84.335
X159.525Y-86.875
X160.96Y-49.2
X160.96Y-97.46
X163.5Y-49.2
X163.5Y-97.46
M30
